# xmcd CD database file
#
# Track frame offsets:
#	150
#	20367
#	54819
#	94754
#	143281
#	180271
#	211269
#	255329
#	293563
#
# Disc length: 4382 seconds
#
# Revision: 2
# Processed by: cddbd v1.4PL0 Copyright (c) Steve Scherf et al.
# Submitted via: CDex 1.50Beta7
#
DISCID=63111c09
DTITLE=Lee Konitz - Motion Disk 1
DYEAR=1900
DGENRE=Jazz
TTITLE0=I Remember You
TTITLE1=All Of Me
TTITLE2=Foolin' Myself
TTITLE3=You'd Be So Nice To Come home to
TTITLE4=I'll Remember April
TTITLE5=You Don't Know What Love Is
TTITLE6=These Foolish Things
TTITLE7=Out Of Nowhere
TTITLE8=It's You Or No One
EXTD=
EXTT0=
EXTT1=
EXTT2=
EXTT3=
EXTT4=
EXTT5=
EXTT6=
EXTT7=
EXTT8=
PLAYORDER=
